<svg width="100" height="100" viewBox="0 0 100 100" fill="none" xmlns="http://www.w3.org/2000/svg">
<rect width="100" height="100" fill="#6988F4"/>
<path d="M44.0938 75L33.0938 39.1562H32.8125C32.8542 40.0104 32.9167 41.3021 33 43.0312C33.1042 44.7396 33.1979 46.5625 33.2812 48.5C33.3646 50.4375 33.4062 52.1875 33.4062 53.75V75H24.75V29.3125H37.9375L48.75 64.25H48.9375L60.4062 29.3125H73.5938V75H64.5625V53.375C64.5625 51.9375 64.5833 50.2812 64.625 48.4062C64.6875 46.5312 64.7604 44.75 64.8438 43.0625C64.9271 41.3542 64.9896 40.0729 65.0312 39.2188H64.75L52.9688 75H44.0938Z" fill="white"/>
</svg>
