<svg width="100" height="100" viewBox="0 0 100 100" fill="none" xmlns="http://www.w3.org/2000/svg">
<rect width="100" height="100" fill="#6988F4"/>
<path d="M33.75 29.3125H47.9688C54.0521 29.3125 58.6562 30.1667 61.7812 31.875C64.9062 33.5833 66.4688 36.5833 66.4688 40.875C66.4688 42.6042 66.1875 44.1667 65.625 45.5625C65.0833 46.9583 64.2917 48.1042 63.25 49C62.2083 49.8958 60.9375 50.4792 59.4375 50.75V51.0625C60.9583 51.375 62.3333 51.9167 63.5625 52.6875C64.7917 53.4375 65.7708 54.5417 66.5 56C67.25 57.4375 67.625 59.3542 67.625 61.75C67.625 64.5208 66.9479 66.8958 65.5938 68.875C64.2396 70.8542 62.3021 72.375 59.7812 73.4375C57.2812 74.4792 54.3021 75 50.8438 75H33.75V29.3125ZM43.4375 47.4062H49.0625C51.875 47.4062 53.8229 46.9688 54.9062 46.0938C55.9896 45.1979 56.5312 43.8854 56.5312 42.1562C56.5312 40.4062 55.8854 39.1562 54.5938 38.4062C53.3229 37.6354 51.3021 37.25 48.5312 37.25H43.4375V47.4062ZM43.4375 55.0938V67H49.75C52.6667 67 54.6979 66.4375 55.8438 65.3125C56.9896 64.1875 57.5625 62.6771 57.5625 60.7812C57.5625 59.6562 57.3125 58.6667 56.8125 57.8125C56.3125 56.9583 55.4688 56.2917 54.2812 55.8125C53.1146 55.3333 51.5 55.0938 49.4375 55.0938H43.4375Z" fill="white"/>
</svg>
